<svg width="91" height="91" viewBox="0 0 91 91" fill="none" xmlns="http://www.w3.org/2000/svg">
<path d="M39.2404 0.112115C17.6021 0.112115 0 17.7142 0 39.3525C0 60.9908 17.6021 78.5929 39.2404 78.5929C45.8552 78.5929 52.3579 77.0233 57.8516 73.9962C58.2916 74.5258 58.7795 75.0136 59.3091 75.4537L70.5206 86.6652C71.5559 87.8301 72.8183 88.7711 74.2303 89.4305C75.6424 90.0898 77.1744 90.4536 78.7321 90.4994C80.2899 90.5453 81.8405 90.2723 83.289 89.6971C84.7374 89.122 86.0529 88.2569 87.1549 87.1549C88.2569 86.0529 89.122 84.7374 89.6971 83.289C90.2723 81.8405 90.5453 80.2899 90.4994 78.7321C90.4536 77.1744 90.0898 75.6424 89.4305 74.2303C88.7711 72.8183 87.8301 71.5559 86.6653 70.5206L75.4537 59.3091C74.9076 58.7627 74.3064 58.2743 73.6599 57.8516C76.687 52.3579 78.5929 45.9673 78.5929 39.2404C78.5929 17.6021 60.9908 0 39.3525 0L39.2404 0.112115ZM39.2404 11.3237C54.8245 11.3237 67.2693 23.7685 67.2693 39.3525C67.2693 46.7521 64.5785 53.5912 59.8697 58.6364C59.7575 58.7485 59.6454 58.8606 59.5333 58.9727C59.0037 59.4128 58.5159 59.9007 58.0758 60.4302C53.1427 64.9148 46.4158 67.4935 39.1283 67.4935C23.5442 67.4935 11.0994 55.0487 11.0994 39.4646C11.0994 23.8806 23.5442 11.4358 39.1283 11.4358L39.2404 11.3237Z" fill="black"/>
</svg>
