<svg width="27" height="24" viewBox="0 0 27 24" fill="none" xmlns="http://www.w3.org/2000/svg">
<path d="M11.7065 0.0297308C5.25121 0.0297308 0 4.69747 0 10.4355C0 16.1736 5.25121 20.8413 11.7065 20.8413C13.6799 20.8413 15.6198 20.4251 17.2588 19.6224C17.39 19.7628 17.5356 19.8922 17.6936 20.0089L21.0383 22.9819C21.3471 23.2908 21.7237 23.5404 22.145 23.7152C22.5663 23.8901 23.0233 23.9865 23.488 23.9987C23.9527 24.0108 24.4153 23.9384 24.8474 23.7859C25.2795 23.6334 25.672 23.404 26.0008 23.1118C26.3295 22.8196 26.5876 22.4707 26.7592 22.0866C26.9308 21.7025 27.0122 21.2913 26.9985 20.8782C26.9848 20.4651 26.8763 20.0589 26.6796 19.6844C26.4829 19.31 26.2022 18.9752 25.8547 18.7007L22.51 15.7276C22.347 15.5827 22.1677 15.4532 21.9748 15.3411C22.8779 13.8843 23.4465 12.1896 23.4465 10.4058C23.4465 4.66774 18.1953 0 11.74 0L11.7065 0.0297308ZM11.7065 3.00281C16.3557 3.00281 20.0683 6.30294 20.0683 10.4355C20.0683 12.3978 19.2656 14.2113 17.8608 15.5492C17.8274 15.579 17.7939 15.6087 17.7605 15.6384C17.6025 15.7551 17.4569 15.8845 17.3256 16.0249C15.854 17.2142 13.8471 17.898 11.6731 17.898C7.02391 17.898 3.31127 14.5978 3.31127 10.4653C3.31127 6.33267 7.02391 3.03255 11.6731 3.03255L11.7065 3.00281Z" fill="#FBFDFF"/>
</svg>
