<svg width="39" height="32" viewBox="0 0 39 32" fill="none" xmlns="http://www.w3.org/2000/svg">
<path d="M4.875 8.00008H35.75L30.875 21.3334H9.75L4.875 8.00008ZM4.875 8.00008L3.65625 4.66675M16.237 14.6667H19.487M19.487 14.6667H22.737M19.487 14.6667V12.0001M19.487 14.6667V17.3334M17.875 26.0001C17.875 26.5305 17.6182 27.0392 17.1611 27.4143C16.704 27.7894 16.084 28.0001 15.4375 28.0001C14.791 28.0001 14.171 27.7894 13.7139 27.4143C13.2568 27.0392 13 26.5305 13 26.0001M27.625 26.0001C27.625 26.5305 27.3682 27.0392 26.9111 27.4143C26.454 27.7894 25.834 28.0001 25.1875 28.0001C24.541 28.0001 23.921 27.7894 23.4639 27.4143C23.0068 27.0392 22.75 26.5305 22.75 26.0001" stroke="#F8F8F8" stroke-width="1.5" stroke-linecap="round" stroke-linejoin="round"/>
</svg>
