<svg width="28" height="31" viewBox="0 0 28 31" fill="none" xmlns="http://www.w3.org/2000/svg">
<path d="M3.5 7.74992H25.6667L22.1667 20.6666H7L3.5 7.74992ZM3.5 7.74992L2.625 4.52075M11.6573 14.2083H13.9907M13.9907 14.2083H16.324M13.9907 14.2083V11.6249M13.9907 14.2083V16.7916M12.8333 25.1874C12.8333 25.7013 12.649 26.1941 12.3208 26.5574C11.9926 26.9208 11.5475 27.1249 11.0833 27.1249C10.6192 27.1249 10.1741 26.9208 9.8459 26.5574C9.51771 26.1941 9.33333 25.7013 9.33333 25.1874M19.8333 25.1874C19.8333 25.7013 19.649 26.1941 19.3208 26.5574C18.9926 26.9208 18.5475 27.1249 18.0833 27.1249C17.6192 27.1249 17.1741 26.9208 16.8459 26.5574C16.5177 26.1941 16.3333 25.7013 16.3333 25.1874" stroke="#F8F8F8" stroke-width="1.5" stroke-linecap="round" stroke-linejoin="round"/>
</svg>
