<svg width="28" height="27" viewBox="0 0 28 27" fill="none" xmlns="http://www.w3.org/2000/svg">
<path d="M18.1779 15.6666H17.2808L16.9629 15.3666C18.1142 14.0599 18.747 12.3918 18.7457 10.6666C18.7457 9.23814 18.3128 7.8418 17.5018 6.65411C16.6907 5.46642 15.5379 4.54073 14.1891 3.9941C12.8403 3.44747 11.3562 3.30444 9.92436 3.58311C8.49252 3.86178 7.17729 4.54963 6.14498 5.55968C5.11268 6.56973 4.40968 7.8566 4.12487 9.25758C3.84005 10.6586 3.98623 12.1107 4.54491 13.4304C5.10359 14.7501 6.04967 15.878 7.26353 16.6716C8.47739 17.4652 9.9045 17.8888 11.3644 17.8888C13.1927 17.8888 14.8734 17.2332 16.1679 16.1443L16.4746 16.4555V17.3332L22.1525 22.8777L23.8446 21.2221L18.1779 15.6666ZM11.3644 15.6666C8.53676 15.6666 6.25422 13.4332 6.25422 10.6666C6.25422 7.8999 8.53676 5.66656 11.3644 5.66656C14.192 5.66656 16.4746 7.8999 16.4746 10.6666C16.4746 13.4332 14.192 15.6666 11.3644 15.6666Z" fill="#545454"/>
</svg>
